<?xml version="1.0" encoding="UTF-8" standalone="no"?><!DOCTYPE svg PUBLIC "-//W3C//DTD SVG 1.1//EN" "http://www.w3.org/Graphics/SVG/1.1/DTD/svg11.dtd"><svg width="100%" height="100%" viewBox="0 0 456 323" version="1.1" xmlns="http://www.w3.org/2000/svg" xmlns:xlink="http://www.w3.org/1999/xlink" xml:space="preserve" xmlns:serif="http://www.serif.com/" style="fill-rule:evenodd;clip-rule:evenodd;stroke-linejoin:round;stroke-miterlimit:1.41421;"><path d="M184.096,192.301l-14.588,0c0,-14.431 -2.127,-20.676 -8.712,-20.676c-7.395,0 -9.117,10.13 -9.117,38.16c0,29.974 3.039,35.385 9.32,35.385c5.268,0 9.117,-3.746 9.117,-25.116l14.588,0c0,21.37 -3.849,39.825 -22.996,39.825c-21.881,0 -24.617,-21.369 -24.617,-51.481c0,-30.112 2.736,-51.481 24.617,-51.481c20.869,0 22.388,20.953 22.388,35.384Zm-55.918,-5.967l-13.98,0c0,-9.296 -2.329,-14.709 -7.901,-14.709c-6.585,0 -8.307,5.69 -8.307,11.518c0,6.106 1.317,9.852 7.496,13.46l11.245,6.661c10.941,6.521 13.777,14.154 13.777,26.226c0,20.953 -9.319,30.389 -25.123,30.389c-16.512,0 -22.996,-10.546 -22.996,-28.862l0,-4.025l14.588,0l0,2.914c0,9.297 1.925,15.264 9.624,15.264c4.457,0 8.712,-3.885 8.712,-12.211c0,-9.02 -3.343,-12.35 -12.967,-16.929c-12.967,-6.105 -18.944,-13.46 -18.944,-29.973c0,-19.288 8.611,-29.14 22.389,-29.14c12.966,0 22.387,7.632 22.387,26.643l0,2.774Zm88.738,-29.417c21.882,0 24.617,21.369 24.617,51.481c0,30.112 -2.735,51.481 -24.617,51.481c-21.881,0 -24.617,-21.369 -24.617,-51.481c0,-30.112 2.736,-51.481 24.617,-51.481Zm-193.888,101.021l-22.996,0l0,-99.079l23.908,0c20.26,0 23.907,19.011 23.907,48.152c0,35.106 -5.47,50.927 -24.819,50.927Zm50.549,0l-14.588,0l0,-99.079l14.588,0l0,99.079Zm270.98,-82.705l-25.833,0l0,23.313l24.313,0l0,16.374l-24.313,0l0,26.643l26.845,0l0,16.375l-41.432,0l0,-99.079l40.42,0l0,16.374Zm23.702,82.705l-14.587,0l0,-99.079l26.946,0c11.954,0 19.248,8.604 19.248,25.533c0,13.182 -3.849,22.063 -12.055,24.422l0,0.278c9.927,1.804 11.447,9.297 11.65,30.25c0.101,10.407 0.506,15.82 3.241,17.762l0,0.834l-15.803,0c-1.418,-2.776 -1.722,-6.523 -1.824,-10.409l-0.405,-19.01c-0.202,-7.771 -2.734,-12.489 -8.61,-12.489l-7.801,0l0,41.908Zm-86.814,0l-18.74,0l-16.614,-99.079l15.6,0l10.232,73.268l0.305,0l10.738,-73.268l15.094,0l-16.615,99.079Zm155.396,0l-14.588,0l0,-38.994l-18.741,-60.085l16.411,0l9.522,38.299l0.204,0l10.129,-38.299l15.804,0l-18.741,60.085l0,38.994Zm-219.925,-12.768c8.611,0 10.029,-10.129 10.029,-36.772c0,-26.504 -1.418,-36.773 -10.029,-36.773c-8.611,0 -10.029,10.269 -10.029,36.773c0,26.643 1.418,36.772 10.029,36.772Zm-196.117,-71.602l-6.179,0l0,69.66l6.483,0c10.131,0 12.156,-8.743 12.156,-35.663c0,-22.479 -1.317,-33.997 -12.46,-33.997Zm354.349,0l-6.889,0l0,28.585l6.079,0c6.989,0 10.94,-4.162 10.94,-14.847c0,-9.159 -3.546,-13.738 -10.13,-13.738Z" style="fill:#00a0dd;fill-rule:nonzero;"/><path d="M333.629,275.913l7.095,0l0,26.241c0,6.056 0.341,13.058 9.536,13.058c9.195,0 9.536,-7.002 9.536,-13.058l0,-26.241l7.096,0l0,28.827c0,11.544 -6.642,17.284 -16.632,17.284c-9.99,0 -16.631,-5.74 -16.631,-17.284l0,-28.827Zm111.659,13.31l-7.095,0c-0.34,-5.803 -3.86,-7.948 -8.742,-7.948c-3.292,0 -7.435,1.325 -7.435,5.867c0,3.153 1.929,4.92 4.825,5.802c0.624,0.19 9.593,2.776 11.692,3.47c5.336,1.767 7.891,6.813 7.891,11.481c0,10.092 -8.061,14.129 -16.121,14.129c-9.252,0 -16.744,-4.92 -16.915,-16.085l7.095,0c0,6.939 4.598,9.652 10.274,9.652c6.244,0 8.571,-3.407 8.571,-6.814c0,-3.468 -1.703,-4.856 -3.348,-5.55c-2.838,-1.199 -6.529,-2.019 -12.091,-3.722c-6.925,-2.081 -8.969,-6.749 -8.969,-11.417c0,-9.021 7.493,-13.247 14.815,-13.247c8.458,0 15.553,4.983 15.553,14.382Zm-354.405,1.009l-7.095,0c-1.192,-5.172 -4.201,-8.957 -10.104,-8.957c-8.684,0 -12.318,8.516 -12.318,17.158c0,8.641 3.634,17.158 12.318,17.158c6.301,0 9.763,-5.237 10.331,-11.797l6.925,0c-0.568,10.787 -7.436,18.23 -17.256,18.23c-12.147,0 -19.413,-10.723 -19.413,-23.591c0,-12.869 7.266,-23.592 19.413,-23.592c9.139,0.063 16.348,5.677 17.199,15.391Zm236.383,8.201c0,12.868 -7.266,23.591 -19.412,23.591c-12.148,0 -19.414,-10.723 -19.414,-23.591c0,-12.869 7.266,-23.592 19.414,-23.592c12.146,0 19.412,10.723 19.412,23.592Zm-161.789,-8.201l-7.095,0c-1.192,-5.172 -4.201,-8.957 -10.104,-8.957c-8.685,0 -12.317,8.516 -12.317,17.158c0,8.641 3.632,17.158 12.317,17.158c6.301,0 9.763,-5.237 10.33,-11.797l6.926,0c-0.568,10.787 -7.436,18.23 -17.256,18.23c-12.147,0 -19.413,-10.723 -19.413,-23.591c0,-12.869 7.266,-23.592 19.413,-23.592c9.139,0.063 16.348,5.677 17.199,15.391Zm-146.859,30.72l-18.618,0l0,-45.039l19.696,0c7.266,0 12.034,3.658 12.034,11.165c0,4.542 -2.1,7.822 -5.79,9.588l0,0.127c4.939,1.198 7.606,5.487 7.606,11.606c0,7.065 -4.427,12.553 -14.928,12.553Zm28.84,0l-7.096,0l0,-45.039l7.096,0l0,45.039Zm152.591,0l-27.7,0l0,-45.039l7.095,0l0,38.227l20.605,0l0,6.812Zm34.516,0l-29.574,0l0,-45.039l29.176,0l0,6.813l-22.081,0l0,11.795l20.435,0l0,6.435l-20.435,0l0,13.184l22.479,0l0,6.812Zm39.171,0l-7.095,0l0,-38.226l-12.828,0l0,-6.813l32.808,0l0,6.813l-12.885,0l0,38.226Zm108.826,0l-7.095,0l0,-45.039l19.355,0c8.856,0 13.397,4.542 13.397,12.175c0,8.641 -5.393,10.85 -6.698,11.354l0,0.126c2.44,0.378 6.016,2.397 6.016,9.525c0,5.236 0.682,10.03 2.214,11.859l-7.606,0c-1.079,-1.955 -1.079,-4.416 -1.079,-6.623c0,-8.264 -1.533,-11.923 -8.06,-11.923l-10.444,0l0,18.546Zm-268.572,0l-7.095,0l0,-17.662l-15.213,-27.377l8.231,0l10.728,20.186l10.557,-20.186l7.948,0l-15.156,27.377l0,17.662Zm181.545,-22.519c0,8.641 3.633,17.158 12.319,17.158c8.684,0 12.317,-8.517 12.317,-17.158c0,-8.642 -3.633,-17.158 -12.317,-17.158c-8.686,0 -12.319,8.516 -12.319,17.158Zm-288.44,16.085l12.544,0c4.315,0 6.812,-2.586 6.812,-7.128c0,-4.415 -2.497,-6.939 -6.812,-6.939l-12.544,0l0,14.067Zm375.467,-18.104l11.636,0c4.485,0 6.925,-2.46 6.925,-7.191c0,-5.741 -3.349,-6.875 -7.039,-6.875l-11.522,0l0,14.066Zm-375.467,-1.64l11.579,0c3.406,0 5.96,-2.208 5.96,-6.245c0,-4.542 -2.1,-6.181 -5.96,-6.181l-11.579,0l0,12.426Z" style="fill:#231f20;fill-rule:nonzero;"/><path id="wheel" d="M97.724,138.036c-0.236,-20.402 4.432,-40.862 13.814,-59.027c15.278,-29.582 42.688,-52.625 74.793,-62.381c11.741,-3.567 23.95,-5.36 36.261,-5.385c0.135,0 0.27,0 0.405,0c24.019,0.065 48.246,7.224 68.483,20.554c22.952,15.12 40.711,37.95 49.621,63.916c4.656,13.57 6.902,27.959 6.714,42.323l-9.045,0l0.002,-0.118l-5.971,0.118l-86.312,0c0.638,-4.662 -0.122,-9.521 -2.267,-13.708c-3.811,-7.441 -11.889,-12.451 -20.283,-12.543c-0.099,-0.001 -0.198,-0.001 -0.298,-0.001c-5.891,0.028 -11.731,2.397 -15.961,6.502c-5.181,5.029 -7.675,12.544 -6.726,19.75l-103.23,0Zm112.596,0c-0.248,-1.035 -0.38,-2.115 -0.38,-3.226c0,-7.608 6.168,-13.773 13.775,-13.773c7.607,0 13.776,6.165 13.776,13.773c0,1.111 -0.132,2.191 -0.38,3.226l-26.791,0Zm-100.165,-30.05c-2.118,8.511 -3.253,17.264 -3.413,26.04l87.831,-1.734l-84.418,-24.306Zm142.027,24.135l86.57,1.298c-0.198,-8.439 -1.298,-16.855 -3.31,-25.055l-83.26,23.757Zm-2.971,-6.998l85.074,-21.103c-0.585,-2.036 -1.229,-4.056 -1.929,-6.057c-2.193,-6.262 -4.939,-12.322 -8.179,-18.106l-74.966,45.266Zm-128.03,-45.004c-3.219,5.781 -5.948,11.839 -8.124,18.103c-0.624,1.796 -1.202,3.608 -1.733,5.433l84.595,21.203l-74.738,-44.739Zm18.286,-24.615c-6.081,6.281 -11.467,13.244 -16.018,20.722l76.44,42.08l-60.422,-62.802Zm106.852,62.594l75.583,-42.124c-4.414,-7.212 -9.61,-13.948 -15.466,-20.056l-60.117,62.18Zm-5.775,-5.054l62.703,-60.327c-5.142,-4.967 -10.739,-9.466 -16.718,-13.404c-1.318,-0.868 -2.654,-1.709 -4.007,-2.52l-41.978,76.251Zm-77.668,-76.186c-1.444,0.868 -2.869,1.768 -4.272,2.7c-5.677,3.771 -11.012,8.053 -15.94,12.768l62.502,60.426l-42.29,-75.894Zm28.114,-12.148c-8.405,2.387 -16.553,5.708 -24.216,9.91l45.27,74.976l-21.054,-84.886Zm43.145,84.111l44.464,-74.278c-7.427,-4.066 -15.301,-7.307 -23.425,-9.668l-21.039,83.946Zm-7.499,-1.099l24.19,-84.021c-8.258,-2.06 -16.733,-3.22 -25.223,-3.424c-0.231,-0.005 -0.462,-0.01 -0.694,-0.014l1.727,87.459Zm-6.229,-87.453c-8.422,0.18 -16.847,1.294 -25.067,3.294l23.764,83.309l1.303,-86.603Z" style="fill:#231f20;fill-rule:nonzero;"/><path id="tire" d="M86.261,138.036c-0.126,-9.056 0.642,-18.138 2.342,-27.086c5.355,-28.183 19.902,-54.467 40.841,-74.076c24.116,-22.584 56.593,-35.988 89.827,-36.83c1.248,-0.031 2.497,-0.045 3.744,-0.044c18.889,0.045 37.907,4.02 55.239,11.729c28.008,12.458 51.63,34.667 65.811,61.94c10.273,19.76 15.448,42.073 15.258,64.367l-11.988,0c0.125,-8.43 -0.599,-16.891 -2.21,-25.227c-4.971,-25.72 -18.366,-49.714 -37.592,-67.558c-22.04,-20.455 -51.548,-32.547 -81.921,-33.22c-1.007,-0.022 -2.016,-0.032 -3.02,-0.031c-24.328,0.058 -48.592,7.359 -68.833,20.857c-22.367,14.915 -39.78,37.278 -48.643,62.69c-4.747,13.614 -7.053,28.06 -6.892,42.489l-11.963,0Z" style="fill:#fcdb03;fill-rule:nonzero;"/></svg>